# xmcd
# 
# Track frame offsets:
#     150
#     26115
#     48945
#     72973
#     101350
#     116980
#     142730
#     174383
#     197513
#     215080
# 
# Disc length: 3216
# 
# Revision: 4
# Processed by: cddbd v1.5.2PL0 Copyright (c) Steve Scherf et al.
# Submitted via: fre:ac v1.0.31
# 
DISCID=8c0c8e0a
DTITLE=Various Artist - Mưa Sài Gòn - Nắng Cali - Ngọc Lan - Kiều Nga - Elvis Phương - Hằng Nga - Vũ Khanh - Người Đẹp Bình Dương
DYEAR=1990
DGENRE=Pop
TTITLE0=Ngọc Lan - Sài Gòn Ơi Vĩnh Biệt - Nam Lộc
TTITLE1=Hằng Nga - Một Chút Quà Cho Quê Hương - Việt Dzũng
TTITLE2=Ngọc Lan - Mưa Sài Gòn, Nắng Cali - Nguyệt Ánh
TTITLE3=Elvis Phương - Mặt Trời Mù - Trúc Lam
TTITLE4=Kiều Nga - Kinh Khổ - Trầm Tử Thiêng
TTITLE5=Ngọc Lan - Cánh Chim Viễn Xứ - Linh Giang
TTITLE6=Vũ Khanh - Áo Anh Sứt Chỉ Đường Tà - Phạm Duy
TTITLE7=Kiều Nga - Tình Lỡ - Thanh Bình
TTITLE8=Elvis Phương - Rồi Có Một Ngày - Hoàng Thi Thơ
TTITLE9=Various Artist - Mười Năm Tình Cũ - Trầm Tử Thiêng
EXTD=
EXTT0=
EXTT1=
EXTT2=
EXTT3=
EXTT4=
EXTT5=
EXTT6=
EXTT7=
EXTT8=
EXTT9=
PLAYORDER=
